<svg width="1088" height="1088" viewBox="0 0 1088 1088" fill="none" xmlns="http://www.w3.org/2000/svg" xmlns:xlink="http://www.w3.org/1999/xlink">
<g clip-path="url(#clip0)">
<rect width="1088" height="1088" fill="url(#preview_linear)"/>
<rect class="PreviewBack" width="1088" height="1088" fill="#ffd200"/>
<g filter="url(#filter0_d)">
<g clip-path="url(#clip1)">
<rect class="windowBackgroundWhite" x="571" y="126" width="414" height="896" rx="50" fill="ffd200"/>
<rect class="chats_secretName" x="709" y="647" width="70" height="13" rx="6.5" fill="#ffd200"/>
<circle class="chats_secretIcon" cx="697.5" cy="653.5" r="6.5" fill="#ffd200"/>
<rect class="chats_message" x="691" y="298" width="56" height="13" rx="6.5" fill="#ffd200"/>
<rect class="chats_message" x="691" y="674" width="56" height="13" rx="6.5" fill="#ffd200"/>
<rect class="chats_message" x="691" y="417" width="75" height="13" rx="6.5" fill="#ffd200"/>
<rect class="chats_message" x="691" y="486" width="90" height="13" rx="6.5" fill="#ffd200"/>
<rect class="chats_message" x="691" y="580" width="180" height="13" rx="6.5" fill="#ffd200"/>
<rect class="chats_message" x="691" y="768" width="80" height="13" rx="6.5" fill="#ffd200"/>
<rect class="chats_message" x="691" y="862" width="61" height="13" rx="6.5" fill="#ffd200"/>
<rect class="chats_nameMessage" x="691" y="956" width="56" height="13" rx="6.5" fill="#ffd200"/>
<rect class="chats_message" x="691" y="981" width="139" height="13" rx="6.5" fill="#ffd200"/>
<rect class="chats_nameMessage" x="691" y="392" width="56" height="13" rx="6.5" fill="#ffd200"/>
<rect class="chats_name" x="691" y="365" width="101" height="13" rx="6.5" fill="#ffd200"/>
<rect class="chats_name" x="691" y="459" width="110" height="13" rx="6.5" fill="#ffd200"/>
<rect class="chats_name" x="691" y="553" width="60" height="13" rx="6.5" fill="#ffd200"/>
<rect class="chats_name" x="691" y="741" width="101" height="13" rx="6.5" fill="#ffd200"/>
<rect class="chats_name" x="691" y="835" width="90" height="13" rx="6.5" fill="#ffd200"/>
<rect class="chats_name" x="691" y="929" width="120" height="13" rx="6.5" fill="#ffd200"/>
<rect class="chats_name" x="691" y="271" width="80" height="13" rx="6.5" fill="#ffd200"/>
<circle cx="636" cy="400" r="35" fill="url(#paint0_linears)"/>
<circle cx="636" cy="306" r="35" fill="url(#paint1_linears)"/>
<circle cx="636" cy="682" r="35" fill="url(#paint2_linears)"/>
<circle cx="636" cy="588" r="35" fill="url(#paint3_linears)"/>
<circle cx="636" cy="494" r="35" fill="url(#paint4_linears)"/>
<circle cx="636" cy="870" r="35" fill="url(#paint5_linears)"/>
<circle cx="636" cy="776" r="35" fill="url(#paint6_linears)"/>
<circle cx="636" cy="964" r="35" fill="url(#paint7_linears)"/>
<rect class="chats_date" x="918" y="273" width="37" height="13" rx="6.5" fill="#ffd200"/>
<rect class="chats_date" x="918" y="367" width="37" height="13" rx="6.5" fill="#ffd200"/>
<rect class="chats_date" x="918" y="461" width="37" height="13" rx="6.5" fill="#ffd200"/>
<rect class="chats_date" x="918" y="555" width="37" height="13" rx="6.5" fill="#ffd200"/>
<rect class="chats_date" x="918" y="649" width="37" height="13" rx="6.5" fill="#ffd200"/>
<rect class="chats_date" x="918" y="743" width="37" height="13" rx="6.5" fill="#ffd200"/>
<rect class="chats_date" x="918" y="931" width="37" height="13" rx="6.5" fill="#ffd200"/>
<rect class="chats_date" x="918" y="837" width="37" height="13" rx="6.5" fill="#ffd200"/>
<circle class="chats_sentCheck" cx="904.5" cy="279.5" r="6.5" fill="#ffd200"/>
<circle class="chats_sentCheck" cx="904.5" cy="655.5" r="6.5" fill="#ffd200"/>
<circle class="chats_sentCheck" cx="904.5" cy="749.5" r="6.5" fill="#ffd200"/>
<rect x="571" y="929" width="414" height="93" fill="url(#paint0_linear)"/>
<g filter="url(#filter1_f)">
<rect class="chats_actionBackground" x="895" y="932" width="60" height="60" fill="ffd200" fill-opacity="0.4"/>
</g>
<circle class="chats_actionBackground" cx="925" cy="962" r="30" fill="#ffd200"/>
<circle class="chats_unreadCounterMuted" cx="942.5" cy="410.5" r="12.5" fill="#ffd200"/>
<circle class="chats_unreadCounter" cx="942.5" cy="316.5" r="12.5" fill="#ffd200"/>
<circle class="chats_muteIcon" cx="805.5" cy="371.5" r="6.5" fill="#ffd200"/>
<circle class="windowBackgroundWhite" cx="660" cy="706" r="10" fill="ffd200"/>
<circle class="chats_onlineCircle" cx="660" cy="706" r="7" fill="ffd200"/>
<g filter="url(#filter2_d)">
<path class="inappPlayerBackground" d="M571 202H985V221C985 232.201 985 237.802 982.82 242.08C980.903 245.843 977.843 248.903 974.08 250.82C969.802 253 964.201 253 953 253H603C591.799 253 586.198 253 581.92 250.82C578.157 248.903 575.097 245.843 573.18 242.08C571 237.802 571 232.201 571 221V202Z" fill="#ffd200"/>
<rect class="inappPlayerTitle" x="662" y="220" width="88" height="15" rx="7.5" fill="ffd200"/>
<circle class="inappPlayerPlayPause" cx="619.5" cy="227.5" r="12.5" fill="ffd200"/>
<circle class="inappPlayerClose" cx="936.5" cy="227.5" r="12.5" fill="ffd200"/>
<circle class="inappPlayerClose" cx="896.5" cy="227.5" r="12.5" fill="#ffd200"/>
</g>
<g filter="url(#filter3_d)">
<rect class="actionBarDefault" x="571" y="126" width="414" height="76" fill="ffd200"/>
</g>
<circle class="actionBarDefaultIcon" cx="620" cy="164" r="15" fill="#ffd200"/>
<circle class="actionBarDefaultIcon" cx="936" cy="164" r="15" fill="#ffd200"/>
<circle class="actionBarDefaultIcon" cx="893" cy="164" r="15" fill="#ffd200"/>
<rect class="actionBarDefaultTitle" x="681" y="154" width="110" height="20" rx="10" fill="#ffd200"/>
</g>
</g>
<g filter="url(#filter4_f)">
<path class="ChatShadow" d="M583 149C583 94.3238 538.676 50 484 50H33V1010H484C538.676 1010 583 965.676 583 911V149Z" fill="#ffd200" fill-opacity="0.2"/>
</g>
<g clip-path="url(#clip2)">
<rect class="chat_wallpaper" x="101" y="82" width="414" height="896" rx="50" fill="ffd200"/>
<rect x="101" y="82" width="414" height="896" fill="url(#pattern0)"/>
<g filter="url(#filter5_d)">
<rect class="chat_messagePanelBackground" x="101" y="902" width="414" height="77" fill="ffd200"/>
</g>
<circle class="chat_messagePanelIcons" cx="144" cy="940" r="15" fill="#ffd200"/>
<circle class="chat_messagePanelIcons" cx="479" cy="940" r="15" fill="#ffd200"/>
<circle class="chat_messagePanelIcons" cx="429" cy="940" r="15" fill="#ffd200"/>
<rect class="chat_messagePanelHint" x="184" y="931" width="76" height="17" rx="8.5" fill="#ffd200"/>
<g filter="url(#filter6_f)">
<path class="chat_inBubbleShadow" d="M282.025 699H138.395C127.364 699 118.421 707.874 118.421 718.82V720.236V726.813C118.421 732.235 116.084 737.398 112 741L116.365 740.508C120.344 740.059 124.142 738.617 127.405 736.317C130.558 738.382 134.335 739.584 138.395 739.584H282.025C293.057 739.584 302 730.71 302 719.764V718.82C302 707.874 293.057 699 282.025 699Z" fill="#ffd200" fill-opacity="0.15"/>
<path class="chat_inBubbleShadow" d="M318 669C318 657.954 309.046 649 298 649H129C123.477 649 119 653.477 119 659V681C119 686.523 123.477 691 129 691H298C309.046 691 318 682.046 318 671V669Z" fill="#ffd200" fill-opacity="0.15"/>
<path class="chat_inBubbleShadow" d="M348 583C348 571.954 339.046 563 328 563H139C127.954 563 119 571.954 119 583V631C119 636.523 123.477 641 129 641H328C339.046 641 348 632.046 348 621V583Z" fill="#ffd200" fill-opacity="0.15"/>
<path class="chat_inBubbleShadow" d="M282.025 322H138.395C127.364 322 118.421 330.874 118.421 341.82V343.236V349.813C118.421 355.235 116.084 360.398 112 364L116.365 363.508C120.344 363.059 124.142 361.617 127.405 359.317C130.558 361.382 134.335 362.584 138.395 362.584H282.025C293.057 362.584 302 353.71 302 342.764V341.82C302 330.874 293.057 322 282.025 322Z" fill="#ffd200" fill-opacity="0.15"/>
<path class="chat_inBubbleShadow" d="M361 249.346C361 238.109 351.891 229 340.654 229H141.3C130.089 229 121 238.089 121 249.3V304.426C121 309.713 125.287 314 130.574 314H340.654C351.891 314 361 304.891 361 293.654V249.346Z" fill="#ffd200" fill-opacity="0.15"/>
</g>
<g>
<path class="chat_inBubble" d="M282.025 696H138.395C127.364 696 118.421 704.874 118.421 715.82V717.236V723.813C118.421 729.235 116.084 734.398 112 738L116.365 737.508C120.344 737.059 124.142 735.617 127.405 733.317C130.558 735.382 134.335 736.584 138.395 736.584H282.025C293.057 736.584 302 727.71 302 716.764V715.82C302 704.874 293.057 696 282.025 696Z" fill="ffd200"/>
<path class="chat_inBubble" d="M318 666C318 654.954 309.046 646 298 646H129C123.477 646 119 650.477 119 656V678C119 683.523 123.477 688 129 688H298C309.046 688 318 679.046 318 668V666Z" fill="ffd200"/>
<path class="chat_inBubble" d="M348 580C348 568.954 339.046 560 328 560H139C127.954 560 119 568.954 119 580V628C119 633.523 123.477 638 129 638H328C339.046 638 348 629.046 348 618V580Z" fill="ffd200"/>
<rect class="chat_inAudioTitleText" x="200" y="583" width="130" height="11" rx="5.5" fill="#ffd200"/>
<rect class="chat_inAudioPerfomerText" x="200" y="605" width="90" height="11" rx="5.5" fill="ffd200"/>
<path class="chat_inLoader" d="M138 600C138 613.807 149.193 625 163 625C163 625 165 625 168 624.5C171 624 171.5 623.5 171.5 623.5C171.5 623.5 169.5 622 168.5 619C167.5 616 167.822 612.178 171 609C174.461 605.539 177.873 605.606 181 606.5C184.5 607.5 186 610 186 610C186 610 187 607.5 187.5 605C188 602.5 188 600 188 600C188 586.193 176.807 575 163 575C149.193 575 138 586.193 138 600Z" fill="ffd200"/>
<circle class="chat_inLoader" cx="178" cy="616" r="7" fill="ffd200"/>
<path class="chat_inBubble" d="M282.025 319H138.395C127.364 319 118.421 327.874 118.421 338.82V340.236V346.813C118.421 352.235 116.084 357.398 112 361L116.365 360.508C120.344 360.059 124.142 358.617 127.405 356.317C130.558 358.382 134.335 359.584 138.395 359.584H282.025C293.057 359.584 302 350.71 302 339.764V338.82C302 327.874 293.057 319 282.025 319Z" fill="ffd200"/>
<path class="chat_inBubble" d="M361 246.346C361 235.109 351.891 226 340.654 226H141.3C130.089 226 121 235.089 121 246.3V301.426C121 306.713 125.287 311 130.574 311H340.654C351.891 311 361 301.891 361 290.654V246.346Z" fill="ffd200"/>
<rect class="chat_inReplyLine" x="131" y="240" width="6" height="35" rx="3" fill="ffd200"/>
<rect class="chat_inReplyNameText" x="144" y="242" width="80" height="10" rx="5" fill="ffd200"/>
<rect class="chat_inReplyMessageText" x="144" y="260" width="130" height="10" rx="5" fill="ffd200"/>
</g>
<g filter="url(#filter7_f)">
<path class="chat_outBubbleShadow" d="M332.975 850H476.605C487.636 850 496.579 858.874 496.579 869.82V871.236V877.813C496.579 883.235 498.916 888.398 503 892L498.635 891.508C494.656 891.059 490.858 889.617 487.595 887.317C484.442 889.382 480.665 890.584 476.605 890.584H332.975C321.943 890.584 313 881.71 313 870.764V869.82C313 858.874 321.943 850 332.975 850Z" fill="#ffd200" fill-opacity="0.15"/>
<path class="chat_outBubbleShadow" d="M284 820C284 808.954 292.954 800 304 800H486C491.523 800 496 804.477 496 810V832C496 837.523 491.523 842 486 842H304C292.954 842 284 833.046 284 822V820Z" fill="#ffd200" fill-opacity="0.15"/>
<path class="chat_outBubbleShadow" d="M323 770C323 758.954 331.954 750 343 750H475C486.046 750 495 758.954 495 770V782C495 787.523 490.523 792 485 792H343C331.954 792 323 783.046 323 772V770Z" fill="#ffd200" fill-opacity="0.15"/>
<path class="chat_outBubbleShadow" d="M332.975 512H476.605C487.636 512 496.579 520.874 496.579 531.82V533.236V539.813C496.579 545.235 498.916 550.398 503 554L498.635 553.508C494.656 553.059 490.858 551.617 487.595 549.317C484.442 551.382 480.665 552.584 476.605 552.584H332.975C321.943 552.584 313 543.71 313 532.764V531.82C313 520.874 321.943 512 332.975 512Z" fill="#ffd200" fill-opacity="0.15"/>
<path class="chat_outBubbleShadow" d="M248 396C248 384.954 256.954 376 268 376H475C486.046 376 495 384.954 495 396V408C495 413.523 490.523 418 485 418H268C256.954 418 248 409.046 248 398V396Z" fill="#ffd200" fill-opacity="0.15"/>
<path class="chat_outBubbleShadow" d="M248 446C248 434.954 256.954 426 268 426H484C489.523 426 494 430.477 494 436V494C494 499.523 489.523 504 484 504H268C256.954 504 248 495.046 248 484V446Z" fill="#ffd200" fill-opacity="0.15"/>
<path class="chat_outBubbleShadow" d="M332.975 172H476.605C487.636 172 496.579 180.874 496.579 191.82V193.236V199.813C496.579 205.235 498.916 210.398 503 214L498.635 213.508C494.656 213.059 490.858 211.617 487.595 209.317C484.442 211.382 480.665 212.584 476.605 212.584H332.975C321.943 212.584 313 203.71 313 192.764V191.82C313 180.874 321.943 172 332.975 172Z" fill="#ffd200" fill-opacity="0.15"/>
</g>
<g>
<path d="M333.975 847H477.605C488.636 847 497.579 855.874 497.579 866.82V868.236V874.813C497.579 880.235 499.916 885.398 504 889L499.635 888.508C495.656 888.059 491.858 886.617 488.595 884.317C485.442 886.382 481.665 887.584 477.605 887.584H333.975C322.943 887.584 314 878.71 314 867.764V866.82C314 855.874 322.943 847 333.975 847Z" fill="url(#paint1_linear)"/>
<path d="M285 817C285 805.954 293.954 797 305 797H487C492.523 797 497 801.477 497 807V829C497 834.523 492.523 839 487 839H305C293.954 839 285 830.046 285 819V817Z" fill="url(#paint2_linear)"/>
<path d="M324 767C324 755.954 332.954 747 344 747H476C487.046 747 496 755.954 496 767V779C496 784.523 491.523 789 486 789H344C332.954 789 324 780.046 324 769V767Z" fill="url(#paint3_linear)"/>
<path d="M333.975 509H477.605C488.636 509 497.579 517.874 497.579 528.82V530.236V536.813C497.579 542.235 499.916 547.398 504 551L499.635 550.508C495.656 550.059 491.858 548.617 488.595 546.317C485.442 548.382 481.665 549.584 477.605 549.584H333.975C322.943 549.584 314 540.71 314 529.764V528.82C314 517.874 322.943 509 333.975 509Z" fill="url(#paint4_linear)"/>
<path d="M249 393C249 381.954 257.954 373 269 373H476C487.046 373 496 381.954 496 393V405C496 410.523 491.523 415 486 415H269C257.954 415 249 406.046 249 395V393Z" fill="url(#paint5_linear)"/>
<path d="M249 443C249 431.954 257.954 423 269 423H485C490.523 423 495 427.477 495 433V491C495 496.523 490.523 501 485 501H269C257.954 501 249 492.046 249 481V443Z" fill="url(#paint6_linear)"/>
<circle class="chat_outLoader" cx="292" cy="462" r="25" fill="ffd200"/>
<rect class="chat_outAudioDurationText" x="333.5" y="475" width="50" height="10" rx="5" fill="#ffd200"/>
<rect class="chat_outVoiceSeekbarFill" x="333.5" y="462" width="4.76974" height="4.76974" rx="2.38487" fill="#ffd200"/>
<rect class="chat_outVoiceSeekbarFill" x="339.678" y="457.171" width="4.76974" height="9.53947" rx="2.38487" fill="#ffd200"/>
<rect class="chat_outVoiceSeekbarFill" x="346.355" y="440" width="4.76974" height="26.7105" rx="2.38487" fill="#ffd200"/>
<rect class="chat_outVoiceSeekbarFill" x="353.033" y="445.724" width="4.76974" height="20.9868" rx="2.38487" fill="#ffd200"/>
<rect class="chat_outVoiceSeekbarFill" x="359.711" y="448.586" width="4.76974" height="18.125" rx="2.38487" fill="#ffd200"/>
<rect class="chat_outVoiceSeekbarFill" x="366.388" y="443.816" width="4.76974" height="22.8947" rx="2.38487" fill="#ffd200"/>
<rect class="chat_outVoiceSeekbarFill" x="373.066" y="454.309" width="4.76974" height="12.4013" rx="2.38487" fill="#ffd200"/>
<rect class="chat_outVoiceSeekbarFill" x="379.744" y="448.586" width="4.76974" height="18.125" rx="2.38487" fill="#ffd200"/>
<rect class="chat_outVoiceSeekbar" x="386.421" y="454.309" width="4.76974" height="12.4013" rx="2.38487" fill="ffd200"/>
<rect class="chat_outVoiceSeekbar" x="393.099" y="441.908" width="4.76974" height="24.8026" rx="2.38487" fill="ffd200"/>
<rect class="chat_outVoiceSeekbar" x="400" y="462" width="4.76974" height="4.76974" rx="2.38487" fill="ffd200"/>
<rect class="chat_outVoiceSeekbar" x="406.454" y="448.586" width="4.76974" height="18.125" rx="2.38487" fill="ffd200"/>
<rect class="chat_outVoiceSeekbar" x="413.132" y="451.447" width="4.76974" height="15.2632" rx="2.38487" fill="ffd200"/>
<rect class="chat_outVoiceSeekbar" x="419.809" y="443.816" width="4.76974" height="22.8947" rx="2.38487" fill="ffd200"/>
<rect class="chat_outVoiceSeekbar" x="426.487" y="448.586" width="4.76974" height="18.125" rx="2.38487" fill="ffd200"/>
<rect class="chat_outVoiceSeekbar" x="433.165" y="454.309" width="4.76974" height="12.4013" rx="2.38487" fill="ffd200"/>
<rect class="chat_outVoiceSeekbar" x="439.842" y="440" width="4.76974" height="26.7105" rx="2.38487" fill="ffd200"/>
<rect class="chat_outVoiceSeekbar" x="446.52" y="445.724" width="4.76974" height="20.9868" rx="2.38487" fill="ffd200"/>
<rect class="chat_outVoiceSeekbar" x="453.197" y="443.816" width="4.76974" height="22.8947" rx="2.38487" fill="ffd200"/>
<rect class="chat_outVoiceSeekbar" x="459.875" y="451.447" width="4.76974" height="15.2632" rx="2.38487" fill="ffd200"/>
<rect class="chat_outVoiceSeekbar" x="466.553" y="454.309" width="4.76974" height="12.4013" rx="2.38487" fill="ffd200"/>
<rect class="chat_outVoiceSeekbar" x="472.75" y="462" width="4.76974" height="4.76974" rx="2.38487" fill="ffd200"/>
<path d="M333.975 169H477.605C488.636 169 497.579 177.874 497.579 188.82V190.236V196.813C497.579 202.235 499.916 207.398 504 211L499.635 210.508C495.656 210.059 491.858 208.617 488.595 206.317C485.442 208.382 481.665 209.584 477.605 209.584H333.975C322.943 209.584 314 200.71 314 189.764V188.82C314 177.874 322.943 169 333.975 169Z" fill="url(#paint7_linear)"/>
</g>
<g filter="url(#filter8_d)">
<rect class="actionBarDefault" x="101" y="82" width="414" height="76" fill="ffd200"/>
<circle class="actionBarDefaultIcon" cx="466" cy="120" r="15" fill="#ffd200"/>
<circle class="actionBarDefaultIcon" cx="150" cy="120" r="15" fill="#ffd200"/>
<rect class="actionBarDefaultSubtitle" x="191" y="128" width="61" height="15" rx="7.5" fill="#ffd200"/>
<rect class="actionBarDefaultTitle" x="191" y="98" width="110" height="15" rx="7.5" fill="#ffd200"/>
</g>
</g>
<path d="M44.6 1039.78C45.096 1039.78 45.5413 1039.71 45.936 1039.58C46.3307 1039.44 46.664 1039.25 46.936 1039C47.2133 1038.75 47.424 1038.47 47.568 1038.14C47.7173 1037.8 47.792 1037.43 47.792 1037.04C47.792 1036.17 47.5253 1035.5 46.992 1035.03C46.4587 1034.56 45.6613 1034.33 44.6 1034.33H42.496V1039.78H44.6ZM44.6 1033.68C45.928 1033.68 46.928 1033.97 47.6 1034.55C48.2773 1035.13 48.616 1035.96 48.616 1037.04C48.616 1037.54 48.5227 1037.99 48.336 1038.41C48.1493 1038.82 47.8827 1039.18 47.536 1039.49C47.1893 1039.79 46.768 1040.02 46.272 1040.19C45.776 1040.36 45.2187 1040.44 44.6 1040.44H42.496V1045H41.672V1033.68H44.6ZM51.1181 1038.96C51.2408 1038.63 51.3795 1038.35 51.5341 1038.1C51.6941 1037.84 51.8755 1037.62 52.0781 1037.45C52.2861 1037.27 52.5155 1037.14 52.7661 1037.05C53.0221 1036.95 53.3048 1036.9 53.6141 1036.9C53.7795 1036.9 53.9421 1036.92 54.1021 1036.95C54.2621 1036.98 54.4035 1037.03 54.5261 1037.1L54.4621 1037.63C54.4355 1037.72 54.3848 1037.76 54.3101 1037.76C54.2461 1037.76 54.1475 1037.74 54.0141 1037.7C53.8861 1037.67 53.7155 1037.65 53.5021 1037.65C53.1928 1037.65 52.9181 1037.7 52.6781 1037.79C52.4435 1037.88 52.2301 1038.02 52.0381 1038.21C51.8515 1038.39 51.6861 1038.63 51.5421 1038.9C51.4035 1039.18 51.2755 1039.49 51.1581 1039.85V1045H50.3901V1037.04H50.7981C50.8888 1037.04 50.9528 1037.06 50.9901 1037.1C51.0275 1037.13 51.0515 1037.2 51.0621 1037.29L51.1181 1038.96ZM61.1773 1040.22C61.1773 1039.79 61.1159 1039.41 60.9933 1039.07C60.8759 1038.73 60.7079 1038.44 60.4893 1038.21C60.2706 1037.97 60.0093 1037.79 59.7053 1037.67C59.4066 1037.54 59.0759 1037.48 58.7133 1037.48C58.3026 1037.48 57.9346 1037.54 57.6093 1037.67C57.2839 1037.8 57.0013 1037.98 56.7613 1038.22C56.5266 1038.46 56.3373 1038.75 56.1933 1039.09C56.0493 1039.42 55.9533 1039.8 55.9053 1040.22H61.1773ZM55.8653 1040.7V1040.86C55.8653 1041.45 55.9346 1041.98 56.0733 1042.43C56.2119 1042.89 56.4093 1043.27 56.6653 1043.58C56.9213 1043.88 57.2306 1044.11 57.5933 1044.26C57.9559 1044.42 58.3613 1044.5 58.8093 1044.5C59.2093 1044.5 59.5559 1044.45 59.8493 1044.37C60.1426 1044.28 60.3879 1044.18 60.5853 1044.07C60.7879 1043.96 60.9479 1043.86 61.0653 1043.78C61.1826 1043.69 61.2679 1043.64 61.3213 1043.64C61.3906 1043.64 61.4439 1043.67 61.4813 1043.72L61.6893 1043.98C61.5613 1044.14 61.3906 1044.29 61.1773 1044.42C60.9693 1044.56 60.7346 1044.68 60.4733 1044.78C60.2173 1044.88 59.9399 1044.96 59.6413 1045.02C59.3479 1045.07 59.0519 1045.1 58.7533 1045.1C58.2093 1045.1 57.7133 1045.01 57.2653 1044.82C56.8173 1044.63 56.4333 1044.35 56.1133 1043.99C55.7933 1043.63 55.5453 1043.19 55.3693 1042.66C55.1986 1042.14 55.1133 1041.53 55.1133 1040.86C55.1133 1040.29 55.1933 1039.76 55.3533 1039.28C55.5186 1038.79 55.7533 1038.38 56.0573 1038.03C56.3666 1037.68 56.7426 1037.41 57.1853 1037.21C57.6333 1037.01 58.1399 1036.91 58.7053 1036.91C59.1533 1036.91 59.5693 1036.99 59.9533 1037.14C60.3373 1037.3 60.6706 1037.53 60.9533 1037.82C61.2359 1038.12 61.4573 1038.48 61.6173 1038.91C61.7826 1039.34 61.8653 1039.84 61.8653 1040.4C61.8653 1040.52 61.8493 1040.6 61.8173 1040.64C61.7853 1040.68 61.7319 1040.7 61.6573 1040.7H55.8653ZM70.1884 1037.04L66.8284 1045H66.1564L62.7964 1037.04H63.3964C63.471 1037.04 63.5324 1037.06 63.5804 1037.1C63.6284 1037.14 63.6604 1037.18 63.6764 1037.23L66.3084 1043.51C66.3884 1043.75 66.4524 1043.98 66.5004 1044.21C66.5484 1043.98 66.615 1043.75 66.7004 1043.51L69.3404 1037.23C69.367 1037.17 69.4017 1037.13 69.4444 1037.1C69.4924 1037.06 69.5484 1037.04 69.6124 1037.04H70.1884ZM72.6756 1037.04V1045H71.9156V1037.04H72.6756ZM73.0036 1034.3C73.0036 1034.39 72.9823 1034.48 72.9396 1034.57C72.9023 1034.65 72.8516 1034.72 72.7876 1034.78C72.7236 1034.85 72.649 1034.9 72.5636 1034.94C72.4783 1034.97 72.3876 1034.99 72.2916 1034.99C72.1956 1034.99 72.105 1034.97 72.0196 1034.94C71.9343 1034.9 71.8596 1034.85 71.7956 1034.78C71.7316 1034.72 71.681 1034.65 71.6436 1034.57C71.6063 1034.48 71.5876 1034.39 71.5876 1034.3C71.5876 1034.2 71.6063 1034.11 71.6436 1034.02C71.681 1033.93 71.7316 1033.86 71.7956 1033.79C71.8596 1033.73 71.9343 1033.68 72.0196 1033.64C72.105 1033.6 72.1956 1033.58 72.2916 1033.58C72.3876 1033.58 72.4783 1033.6 72.5636 1033.64C72.649 1033.68 72.7236 1033.73 72.7876 1033.79C72.8516 1033.86 72.9023 1033.93 72.9396 1034.02C72.9823 1034.11 73.0036 1034.2 73.0036 1034.3ZM80.9741 1040.22C80.9741 1039.79 80.9128 1039.41 80.7901 1039.07C80.6728 1038.73 80.5048 1038.44 80.2861 1038.21C80.0675 1037.97 79.8061 1037.79 79.5021 1037.67C79.2035 1037.54 78.8728 1037.48 78.5101 1037.48C78.0995 1037.48 77.7315 1037.54 77.4061 1037.67C77.0808 1037.8 76.7981 1037.98 76.5581 1038.22C76.3235 1038.46 76.1341 1038.75 75.9901 1039.09C75.8461 1039.42 75.7501 1039.8 75.7021 1040.22H80.9741ZM75.6621 1040.7V1040.86C75.6621 1041.45 75.7315 1041.98 75.8701 1042.43C76.0088 1042.89 76.2061 1043.27 76.4621 1043.58C76.7181 1043.88 77.0275 1044.11 77.3901 1044.26C77.7528 1044.42 78.1581 1044.5 78.6061 1044.5C79.0061 1044.5 79.3528 1044.45 79.6461 1044.37C79.9395 1044.28 80.1848 1044.18 80.3821 1044.07C80.5848 1043.96 80.7448 1043.86 80.8621 1043.78C80.9795 1043.69 81.0648 1043.64 81.1181 1043.64C81.1875 1043.64 81.2408 1043.67 81.2781 1043.72L81.4861 1043.98C81.3581 1044.14 81.1875 1044.29 80.9741 1044.42C80.7661 1044.56 80.5315 1044.68 80.2701 1044.78C80.0141 1044.88 79.7368 1044.96 79.4381 1045.02C79.1448 1045.07 78.8488 1045.1 78.5501 1045.1C78.0061 1045.1 77.5101 1045.01 77.0621 1044.82C76.6141 1044.63 76.2301 1044.35 75.9101 1043.99C75.5901 1043.63 75.3421 1043.19 75.1661 1042.66C74.9955 1042.14 74.9101 1041.53 74.9101 1040.86C74.9101 1040.29 74.9901 1039.76 75.1501 1039.28C75.3155 1038.79 75.5501 1038.38 75.8541 1038.03C76.1635 1037.68 76.5395 1037.41 76.9821 1037.21C77.4301 1037.01 77.9368 1036.91 78.5021 1036.91C78.9501 1036.91 79.3661 1036.99 79.7501 1037.14C80.1341 1037.3 80.4675 1037.53 80.7501 1037.82C81.0328 1038.12 81.2541 1038.48 81.4141 1038.91C81.5795 1039.34 81.6621 1039.84 81.6621 1040.4C81.6621 1040.52 81.6461 1040.6 81.6141 1040.64C81.5821 1040.68 81.5288 1040.7 81.4541 1040.7H75.6621ZM94.207 1037.04L91.551 1045H90.983C90.8923 1045 90.831 1044.94 90.799 1044.83L88.623 1038.37C88.5963 1038.29 88.5723 1038.21 88.551 1038.13C88.5297 1038.05 88.511 1037.97 88.495 1037.89C88.4683 1038.05 88.4283 1038.21 88.375 1038.37L86.167 1044.83C86.135 1044.94 86.071 1045 85.975 1045H85.431L82.775 1037.04H83.351C83.4257 1037.04 83.487 1037.06 83.535 1037.1C83.583 1037.14 83.615 1037.18 83.631 1037.23L85.639 1043.51C85.671 1043.63 85.7003 1043.75 85.727 1043.87C85.7537 1043.98 85.775 1044.1 85.791 1044.21C85.823 1044.1 85.855 1043.98 85.887 1043.87C85.919 1043.75 85.9563 1043.63 85.999 1043.51L88.127 1037.18C88.1643 1037.06 88.239 1037 88.351 1037H88.663C88.7803 1037 88.8577 1037.06 88.895 1037.18L91.007 1043.51C91.0443 1043.63 91.079 1043.75 91.111 1043.86C91.143 1043.98 91.1723 1044.09 91.199 1044.2C91.2203 1044.09 91.2417 1043.98 91.263 1043.86C91.2897 1043.75 91.3217 1043.63 91.359 1043.51L93.383 1037.23C93.4043 1037.17 93.439 1037.13 93.487 1037.1C93.535 1037.06 93.591 1037.04 93.655 1037.04H94.207ZM100.689 1043.26C100.999 1043.72 101.337 1044.05 101.705 1044.23C102.079 1044.41 102.497 1044.5 102.961 1044.5C103.436 1044.5 103.849 1044.42 104.201 1044.25C104.559 1044.08 104.855 1043.83 105.089 1043.52C105.329 1043.2 105.508 1042.81 105.625 1042.36C105.743 1041.91 105.801 1041.4 105.801 1040.83C105.801 1039.73 105.583 1038.91 105.145 1038.35C104.708 1037.8 104.095 1037.52 103.305 1037.52C102.74 1037.52 102.247 1037.66 101.825 1037.93C101.404 1038.2 101.025 1038.58 100.689 1039.06V1043.26ZM100.689 1038.42C101.036 1037.95 101.441 1037.59 101.905 1037.32C102.369 1037.05 102.908 1036.91 103.521 1036.91C104.001 1036.91 104.431 1037 104.809 1037.18C105.188 1037.35 105.508 1037.61 105.769 1037.94C106.036 1038.27 106.239 1038.67 106.377 1039.16C106.516 1039.64 106.585 1040.19 106.585 1040.8C106.585 1041.45 106.508 1042.03 106.353 1042.57C106.199 1043.1 105.972 1043.55 105.673 1043.93C105.38 1044.3 105.02 1044.59 104.593 1044.8C104.167 1045 103.679 1045.1 103.129 1045.1C102.564 1045.1 102.081 1045 101.681 1044.78C101.287 1044.57 100.945 1044.24 100.657 1043.82L100.601 1044.8C100.585 1044.93 100.513 1045 100.385 1045H99.9214V1033.36H100.689V1038.42ZM114.978 1037.04L110.402 1047.56C110.37 1047.63 110.328 1047.7 110.274 1047.74C110.226 1047.79 110.154 1047.82 110.058 1047.82H109.514L110.914 1044.7L107.546 1037.04H108.178C108.258 1037.04 108.322 1037.06 108.37 1037.1C108.418 1037.14 108.45 1037.18 108.466 1037.23L111.146 1043.42C111.178 1043.5 111.205 1043.59 111.226 1043.67C111.253 1043.75 111.277 1043.83 111.298 1043.92C111.325 1043.83 111.352 1043.75 111.378 1043.67C111.41 1043.59 111.442 1043.5 111.474 1043.42L114.122 1037.23C114.149 1037.17 114.186 1037.13 114.234 1037.1C114.282 1037.06 114.336 1037.04 114.394 1037.04H114.978Z" fill="black" fill-opacity="0.5"/>
<g clip-path="url(#clip3)">
<path fill-rule="evenodd" clip-rule="evenodd" d="M124.86 1034.93C124.259 1035.27 123.732 1035.73 123.31 1036.28C122.888 1036.83 122.578 1037.46 122.398 1038.13C122.036 1039.49 122.226 1040.93 122.926 1042.14C123.626 1043.35 124.78 1044.24 126.133 1044.6C127.486 1044.96 128.928 1044.77 130.141 1044.07C130.28 1044 130.443 1043.98 130.595 1044.03C130.747 1044.07 130.876 1044.17 130.955 1044.31C131.034 1044.44 131.057 1044.61 131.019 1044.76C130.98 1044.91 130.884 1045.05 130.75 1045.13C129.521 1045.84 128.094 1046.13 126.686 1045.95C125.279 1045.77 123.968 1045.14 122.954 1044.14C121.94 1043.15 121.279 1041.85 121.071 1040.45C120.864 1039.05 121.121 1037.61 121.804 1036.37C122.487 1035.13 123.558 1034.14 124.854 1033.56C126.15 1032.98 127.599 1032.85 128.981 1033.17C130.362 1033.49 131.6 1034.26 132.506 1035.35C133.411 1036.44 133.934 1037.8 133.995 1039.22C133.999 1039.25 134 1039.27 134 1039.3V1040.52C134.001 1041 133.844 1041.47 133.553 1041.86C133.263 1042.24 132.855 1042.53 132.39 1042.66C131.925 1042.8 131.429 1042.78 130.976 1042.61C130.523 1042.44 130.139 1042.12 129.879 1041.71C129.364 1042.27 128.671 1042.62 127.92 1042.72C127.169 1042.82 126.408 1042.65 125.768 1042.25C125.127 1041.85 124.648 1041.23 124.412 1040.51C124.176 1039.79 124.199 1039.01 124.476 1038.31C124.753 1037.61 125.267 1037.02 125.93 1036.65C126.593 1036.29 127.362 1036.17 128.106 1036.31C128.849 1036.45 129.521 1036.84 130.003 1037.43C130.486 1038.01 130.75 1038.74 130.75 1039.5V1040.52C130.75 1040.78 130.857 1041.04 131.048 1041.23C131.238 1041.42 131.496 1041.53 131.766 1041.53C132.035 1041.53 132.294 1041.42 132.484 1041.23C132.674 1041.04 132.781 1040.78 132.781 1040.52V1039.39C132.763 1038.47 132.505 1037.58 132.034 1036.79C131.563 1036 130.894 1035.35 130.095 1034.9C129.295 1034.45 128.391 1034.21 127.473 1034.22C126.555 1034.22 125.655 1034.47 124.86 1034.93V1034.93ZM129.531 1039.5C129.531 1038.96 129.317 1038.44 128.937 1038.06C128.556 1037.68 128.039 1037.47 127.5 1037.47C126.961 1037.47 126.445 1037.68 126.064 1038.06C125.683 1038.44 125.469 1038.96 125.469 1039.5C125.469 1040.04 125.683 1040.56 126.064 1040.94C126.445 1041.32 126.961 1041.53 127.5 1041.53C128.039 1041.53 128.556 1041.32 128.937 1040.94C129.317 1040.56 129.531 1040.04 129.531 1039.5Z" fill="black" fill-opacity="0.6"/>
</g>
<path d="M145.248 1034.94H141.6V1045H139.904V1034.94H136.24V1033.51H145.248V1034.94ZM148 1037.9C148.341 1037.56 148.717 1037.28 149.128 1037.06C149.544 1036.85 150.021 1036.74 150.56 1036.74C151.008 1036.74 151.4 1036.82 151.736 1036.97C152.077 1037.12 152.362 1037.33 152.592 1037.6C152.821 1037.87 152.994 1038.19 153.112 1038.57C153.229 1038.95 153.288 1039.37 153.288 1039.82V1045H151.72V1039.82C151.72 1039.24 151.586 1038.79 151.32 1038.47C151.053 1038.15 150.645 1037.98 150.096 1037.98C149.696 1037.98 149.32 1038.08 148.968 1038.27C148.621 1038.46 148.298 1038.71 148 1039.04V1045H146.44V1033.19H148V1037.9ZM160.777 1040.03C160.777 1039.72 160.732 1039.44 160.641 1039.18C160.556 1038.91 160.428 1038.69 160.257 1038.5C160.086 1038.3 159.878 1038.15 159.633 1038.05C159.388 1037.94 159.105 1037.89 158.785 1037.89C158.129 1037.89 157.612 1038.08 157.233 1038.46C156.86 1038.83 156.622 1039.36 156.521 1040.03H160.777ZM162.065 1043.84C161.873 1044.06 161.652 1044.26 161.401 1044.42C161.15 1044.58 160.884 1044.71 160.601 1044.82C160.318 1044.92 160.025 1044.99 159.721 1045.04C159.422 1045.09 159.126 1045.11 158.833 1045.11C158.273 1045.11 157.753 1045.02 157.273 1044.83C156.798 1044.64 156.385 1044.36 156.033 1044C155.686 1043.63 155.414 1043.18 155.217 1042.64C155.025 1042.1 154.929 1041.47 154.929 1040.77C154.929 1040.2 155.017 1039.68 155.193 1039.19C155.369 1038.7 155.62 1038.27 155.945 1037.91C156.276 1037.55 156.678 1037.26 157.153 1037.06C157.628 1036.85 158.161 1036.74 158.753 1036.74C159.249 1036.74 159.705 1036.83 160.121 1036.99C160.542 1037.15 160.905 1037.39 161.209 1037.7C161.513 1038.01 161.75 1038.39 161.921 1038.84C162.097 1039.29 162.185 1039.81 162.185 1040.39C162.185 1040.63 162.158 1040.79 162.105 1040.88C162.052 1040.96 161.953 1041 161.809 1041H156.481C156.497 1041.49 156.566 1041.91 156.689 1042.27C156.812 1042.63 156.98 1042.93 157.193 1043.17C157.412 1043.41 157.67 1043.59 157.969 1043.7C158.268 1043.82 158.601 1043.88 158.969 1043.88C159.316 1043.88 159.614 1043.84 159.865 1043.76C160.121 1043.68 160.34 1043.59 160.521 1043.5C160.708 1043.41 160.862 1043.32 160.985 1043.24C161.113 1043.16 161.225 1043.12 161.321 1043.12C161.449 1043.12 161.548 1043.17 161.617 1043.26L162.065 1043.84ZM163.862 1045V1036.87H164.798C165.016 1036.87 165.152 1036.98 165.206 1037.18L165.318 1037.96C165.616 1037.6 165.947 1037.31 166.31 1037.09C166.678 1036.86 167.107 1036.74 167.598 1036.74C168.136 1036.74 168.574 1036.89 168.91 1037.19C169.246 1037.49 169.491 1037.89 169.646 1038.39C169.763 1038.1 169.915 1037.86 170.102 1037.65C170.288 1037.44 170.496 1037.27 170.726 1037.14C170.955 1037 171.198 1036.9 171.454 1036.84C171.715 1036.78 171.979 1036.74 172.246 1036.74C172.678 1036.74 173.062 1036.81 173.398 1036.95C173.739 1037.09 174.027 1037.28 174.262 1037.54C174.496 1037.81 174.675 1038.13 174.798 1038.51C174.92 1038.9 174.982 1039.33 174.982 1039.82V1045H173.414V1039.82C173.414 1039.22 173.28 1038.76 173.014 1038.45C172.752 1038.14 172.368 1037.98 171.862 1037.98C171.638 1037.98 171.424 1038.02 171.222 1038.1C171.019 1038.18 170.84 1038.29 170.686 1038.45C170.536 1038.6 170.416 1038.79 170.326 1039.02C170.24 1039.25 170.198 1039.52 170.198 1039.82V1045H168.63V1039.82C168.63 1039.19 168.504 1038.73 168.254 1038.43C168.003 1038.13 167.635 1037.98 167.15 1037.98C166.814 1037.98 166.502 1038.07 166.214 1038.25C165.926 1038.42 165.662 1038.66 165.422 1038.97V1045H163.862ZM182.464 1040.03C182.464 1039.72 182.419 1039.44 182.328 1039.18C182.243 1038.91 182.115 1038.69 181.944 1038.5C181.774 1038.3 181.566 1038.15 181.32 1038.05C181.075 1037.94 180.792 1037.89 180.472 1037.89C179.816 1037.89 179.299 1038.08 178.92 1038.46C178.547 1038.83 178.31 1039.36 178.208 1040.03H182.464ZM183.752 1043.84C183.56 1044.06 183.339 1044.26 183.088 1044.42C182.838 1044.58 182.571 1044.71 182.288 1044.82C182.006 1044.92 181.712 1044.99 181.408 1045.04C181.11 1045.09 180.814 1045.11 180.52 1045.11C179.96 1045.11 179.44 1045.02 178.96 1044.83C178.486 1044.64 178.072 1044.36 177.72 1044C177.374 1043.63 177.102 1043.18 176.904 1042.64C176.712 1042.1 176.616 1041.47 176.616 1040.77C176.616 1040.2 176.704 1039.68 176.88 1039.19C177.056 1038.7 177.307 1038.27 177.632 1037.91C177.963 1037.55 178.366 1037.26 178.84 1037.06C179.315 1036.85 179.848 1036.74 180.44 1036.74C180.936 1036.74 181.392 1036.83 181.808 1036.99C182.23 1037.15 182.592 1037.39 182.896 1037.7C183.2 1038.01 183.438 1038.39 183.608 1038.84C183.784 1039.29 183.872 1039.81 183.872 1040.39C183.872 1040.63 183.846 1040.79 183.792 1040.88C183.739 1040.96 183.64 1041 183.496 1041H178.168C178.184 1041.49 178.254 1041.91 178.376 1042.27C178.499 1042.63 178.667 1042.93 178.88 1043.17C179.099 1043.41 179.358 1043.59 179.656 1043.7C179.955 1043.82 180.288 1043.88 180.656 1043.88C181.003 1043.88 181.302 1043.84 181.552 1043.76C181.808 1043.68 182.027 1043.59 182.208 1043.5C182.395 1043.41 182.55 1043.32 182.672 1043.24C182.8 1043.16 182.912 1043.12 183.008 1043.12C183.136 1043.12 183.235 1043.17 183.304 1043.26L183.752 1043.84ZM189.13 1039.42C189.562 1039.42 189.941 1039.37 190.266 1039.26C190.597 1039.14 190.872 1038.99 191.09 1038.78C191.314 1038.58 191.482 1038.33 191.594 1038.05C191.706 1037.76 191.762 1037.44 191.762 1037.1C191.762 1036.4 191.544 1035.85 191.106 1035.45C190.674 1035.05 190.016 1034.85 189.13 1034.85H187.354V1039.42H189.13ZM189.13 1033.51C189.866 1033.51 190.506 1033.6 191.05 1033.77C191.594 1033.94 192.045 1034.18 192.402 1034.5C192.76 1034.81 193.024 1035.18 193.194 1035.62C193.37 1036.07 193.458 1036.56 193.458 1037.1C193.458 1037.63 193.365 1038.13 193.178 1038.58C192.992 1039.03 192.717 1039.42 192.354 1039.74C191.992 1040.07 191.538 1040.32 190.994 1040.5C190.456 1040.68 189.834 1040.77 189.13 1040.77H187.354V1045H185.65V1033.51H189.13ZM196.349 1038.43C196.611 1037.9 196.925 1037.48 197.293 1037.18C197.661 1036.87 198.104 1036.72 198.621 1036.72C198.797 1036.72 198.963 1036.74 199.117 1036.78C199.277 1036.82 199.416 1036.88 199.533 1036.96L199.429 1038.14C199.392 1038.28 199.304 1038.35 199.165 1038.35C199.091 1038.35 198.979 1038.34 198.829 1038.31C198.68 1038.28 198.52 1038.26 198.349 1038.26C198.099 1038.26 197.877 1038.3 197.685 1038.38C197.493 1038.45 197.32 1038.55 197.165 1038.7C197.016 1038.83 196.883 1039.01 196.765 1039.22C196.648 1039.42 196.539 1039.65 196.437 1039.91V1045H194.877V1036.87H195.773C195.944 1036.87 196.059 1036.9 196.117 1036.97C196.181 1037.03 196.227 1037.13 196.253 1037.29L196.349 1038.43ZM205.824 1040.03C205.824 1039.72 205.778 1039.44 205.688 1039.18C205.602 1038.91 205.474 1038.69 205.304 1038.5C205.133 1038.3 204.925 1038.15 204.68 1038.05C204.434 1037.94 204.152 1037.89 203.832 1037.89C203.176 1037.89 202.658 1038.08 202.28 1038.46C201.906 1038.83 201.669 1039.36 201.568 1040.03H205.824ZM207.112 1043.84C206.92 1044.06 206.698 1044.26 206.448 1044.42C206.197 1044.58 205.93 1044.71 205.648 1044.82C205.365 1044.92 205.072 1044.99 204.768 1045.04C204.469 1045.09 204.173 1045.11 203.88 1045.11C203.32 1045.11 202.8 1045.02 202.32 1044.83C201.845 1044.64 201.432 1044.36 201.08 1044C200.733 1043.63 200.461 1043.18 200.264 1042.64C200.072 1042.1 199.976 1041.47 199.976 1040.77C199.976 1040.2 200.064 1039.68 200.24 1039.19C200.416 1038.7 200.666 1038.27 200.992 1037.91C201.322 1037.55 201.725 1037.26 202.2 1037.06C202.674 1036.85 203.208 1036.74 203.8 1036.74C204.296 1036.74 204.752 1036.83 205.168 1036.99C205.589 1037.15 205.952 1037.39 206.256 1037.7C206.56 1038.01 206.797 1038.39 206.968 1038.84C207.144 1039.29 207.232 1039.81 207.232 1040.39C207.232 1040.63 207.205 1040.79 207.152 1040.88C207.098 1040.96 207 1041 206.856 1041H201.528C201.544 1041.49 201.613 1041.91 201.736 1042.27C201.858 1042.63 202.026 1042.93 202.24 1043.17C202.458 1043.41 202.717 1043.59 203.016 1043.7C203.314 1043.82 203.648 1043.88 204.016 1043.88C204.362 1043.88 204.661 1043.84 204.912 1043.76C205.168 1043.68 205.386 1043.59 205.568 1043.5C205.754 1043.41 205.909 1043.32 206.032 1043.24C206.16 1043.16 206.272 1043.12 206.368 1043.12C206.496 1043.12 206.594 1043.17 206.664 1043.26L207.112 1043.84ZM215.777 1036.87L212.481 1045H211.073L207.777 1036.87H209.065C209.188 1036.87 209.289 1036.9 209.369 1036.96C209.449 1037.02 209.502 1037.09 209.529 1037.18L211.473 1042.18C211.542 1042.38 211.601 1042.59 211.649 1042.8C211.702 1043 211.75 1043.21 211.793 1043.41C211.836 1043.21 211.884 1043 211.937 1042.8C211.99 1042.6 212.054 1042.39 212.129 1042.18L214.097 1037.18C214.129 1037.09 214.185 1037.02 214.265 1036.96C214.345 1036.9 214.441 1036.87 214.553 1036.87H215.777ZM218.65 1036.87V1045H217.09V1036.87H218.65ZM218.946 1034.36C218.946 1034.5 218.917 1034.64 218.858 1034.78C218.799 1034.9 218.719 1035.02 218.618 1035.12C218.522 1035.22 218.407 1035.29 218.274 1035.35C218.141 1035.41 218.002 1035.43 217.858 1035.43C217.714 1035.43 217.578 1035.41 217.45 1035.35C217.322 1035.29 217.207 1035.22 217.106 1035.12C217.01 1035.02 216.933 1034.9 216.874 1034.78C216.821 1034.64 216.794 1034.5 216.794 1034.36C216.794 1034.21 216.821 1034.07 216.874 1033.94C216.933 1033.81 217.01 1033.7 217.106 1033.6C217.207 1033.5 217.322 1033.42 217.45 1033.37C217.578 1033.31 217.714 1033.28 217.858 1033.28C218.002 1033.28 218.141 1033.31 218.274 1033.37C218.407 1033.42 218.522 1033.5 218.618 1033.6C218.719 1033.7 218.799 1033.81 218.858 1033.94C218.917 1034.07 218.946 1034.21 218.946 1034.36ZM226.293 1040.03C226.293 1039.72 226.247 1039.44 226.157 1039.18C226.071 1038.91 225.943 1038.69 225.773 1038.5C225.602 1038.3 225.394 1038.15 225.149 1038.05C224.903 1037.94 224.621 1037.89 224.301 1037.89C223.645 1037.89 223.127 1038.08 222.749 1038.46C222.375 1038.83 222.138 1039.36 222.037 1040.03H226.293ZM227.581 1043.84C227.389 1044.06 227.167 1044.26 226.917 1044.42C226.666 1044.58 226.399 1044.71 226.117 1044.82C225.834 1044.92 225.541 1044.99 225.237 1045.04C224.938 1045.09 224.642 1045.11 224.349 1045.11C223.789 1045.11 223.269 1045.02 222.789 1044.83C222.314 1044.64 221.901 1044.36 221.549 1044C221.202 1043.63 220.93 1043.18 220.733 1042.64C220.541 1042.1 220.445 1041.47 220.445 1040.77C220.445 1040.2 220.533 1039.68 220.709 1039.19C220.885 1038.7 221.135 1038.27 221.461 1037.91C221.791 1037.55 222.194 1037.26 222.669 1037.06C223.143 1036.85 223.677 1036.74 224.269 1036.74C224.765 1036.74 225.221 1036.83 225.637 1036.99C226.058 1037.15 226.421 1037.39 226.725 1037.7C227.029 1038.01 227.266 1038.39 227.437 1038.84C227.613 1039.29 227.701 1039.81 227.701 1040.39C227.701 1040.63 227.674 1040.79 227.621 1040.88C227.567 1040.96 227.469 1041 227.325 1041H221.997C222.013 1041.49 222.082 1041.91 222.205 1042.27C222.327 1042.63 222.495 1042.93 222.709 1043.17C222.927 1043.41 223.186 1043.59 223.485 1043.7C223.783 1043.82 224.117 1043.88 224.485 1043.88C224.831 1043.88 225.13 1043.84 225.381 1043.76C225.637 1043.68 225.855 1043.59 226.037 1043.5C226.223 1043.41 226.378 1043.32 226.501 1043.24C226.629 1043.16 226.741 1043.12 226.837 1043.12C226.965 1043.12 227.063 1043.17 227.133 1043.26L227.581 1043.84ZM240.588 1036.87L237.972 1045H236.724C236.574 1045 236.473 1044.9 236.42 1044.7L234.708 1039.41C234.665 1039.27 234.628 1039.14 234.596 1039.02C234.564 1038.88 234.534 1038.75 234.508 1038.62C234.46 1038.89 234.393 1039.16 234.308 1039.42L232.572 1044.7C232.518 1044.9 232.404 1045 232.227 1045H231.044L228.42 1036.87H229.652C229.774 1036.87 229.876 1036.9 229.956 1036.96C230.041 1037.02 230.097 1037.09 230.124 1037.18L231.588 1042.18C231.636 1042.38 231.678 1042.58 231.716 1042.77C231.753 1042.96 231.788 1043.15 231.82 1043.34C231.868 1043.15 231.918 1042.96 231.972 1042.77C232.03 1042.58 232.089 1042.38 232.148 1042.18L233.772 1037.15C233.798 1037.06 233.849 1036.99 233.924 1036.94C233.998 1036.88 234.089 1036.85 234.196 1036.85H234.876C234.993 1036.85 235.089 1036.88 235.164 1036.94C235.244 1036.99 235.297 1037.06 235.324 1037.15L236.908 1042.18C236.966 1042.38 237.022 1042.58 237.076 1042.78C237.129 1042.97 237.177 1043.16 237.22 1043.36C237.252 1043.17 237.289 1042.98 237.332 1042.78C237.374 1042.59 237.422 1042.38 237.476 1042.18L238.964 1037.18C238.99 1037.09 239.044 1037.02 239.124 1036.96C239.209 1036.9 239.305 1036.87 239.412 1036.87H240.588ZM246.208 1043.65C246.64 1043.65 247.008 1043.6 247.312 1043.5C247.621 1043.39 247.872 1043.26 248.064 1043.08C248.261 1042.9 248.405 1042.7 248.496 1042.46C248.586 1042.21 248.632 1041.94 248.632 1041.66C248.632 1041.09 248.434 1040.64 248.04 1040.31C247.645 1039.98 247.034 1039.82 246.208 1039.82H243.808V1043.65H246.208ZM243.808 1034.85V1038.61H245.768C246.605 1038.61 247.226 1038.44 247.632 1038.1C248.042 1037.76 248.248 1037.3 248.248 1036.73C248.248 1036.07 248.053 1035.59 247.664 1035.3C247.274 1035 246.669 1034.85 245.848 1034.85H243.808ZM245.848 1033.51C246.568 1033.51 247.184 1033.58 247.696 1033.72C248.213 1033.86 248.637 1034.06 248.968 1034.32C249.298 1034.58 249.541 1034.9 249.696 1035.27C249.856 1035.64 249.936 1036.06 249.936 1036.53C249.936 1036.81 249.893 1037.07 249.808 1037.33C249.722 1037.58 249.592 1037.82 249.416 1038.05C249.24 1038.27 249.018 1038.46 248.752 1038.64C248.485 1038.82 248.17 1038.96 247.808 1039.08C249.477 1039.41 250.312 1040.28 250.312 1041.7C250.312 1042.19 250.221 1042.63 250.04 1043.04C249.858 1043.44 249.594 1043.79 249.248 1044.08C248.901 1044.37 248.474 1044.6 247.968 1044.76C247.461 1044.92 246.885 1045 246.24 1045H242.104V1033.51H245.848ZM255.513 1036.74C256.11 1036.74 256.649 1036.84 257.129 1037.04C257.614 1037.23 258.025 1037.51 258.361 1037.88C258.702 1038.24 258.964 1038.68 259.145 1039.2C259.326 1039.71 259.417 1040.29 259.417 1040.93C259.417 1041.57 259.326 1042.15 259.145 1042.66C258.964 1043.18 258.702 1043.62 258.361 1043.98C258.025 1044.35 257.614 1044.63 257.129 1044.82C256.649 1045.02 256.11 1045.11 255.513 1045.11C254.91 1045.11 254.366 1045.02 253.881 1044.82C253.401 1044.63 252.99 1044.35 252.649 1043.98C252.308 1043.62 252.044 1043.18 251.857 1042.66C251.676 1042.15 251.585 1041.57 251.585 1040.93C251.585 1040.29 251.676 1039.71 251.857 1039.2C252.044 1038.68 252.308 1038.24 252.649 1037.88C252.99 1037.51 253.401 1037.23 253.881 1037.04C254.366 1036.84 254.91 1036.74 255.513 1036.74ZM255.513 1043.9C256.281 1043.9 256.854 1043.64 257.233 1043.12C257.612 1042.6 257.801 1041.87 257.801 1040.94C257.801 1040 257.612 1039.27 257.233 1038.75C256.854 1038.23 256.281 1037.97 255.513 1037.97C254.734 1037.97 254.153 1038.23 253.769 1038.75C253.39 1039.27 253.201 1040 253.201 1040.94C253.201 1041.87 253.39 1042.6 253.769 1043.12C254.153 1043.64 254.734 1043.9 255.513 1043.9ZM263.546 1045.13C262.89 1045.13 262.384 1044.94 262.026 1044.58C261.674 1044.21 261.498 1043.68 261.498 1043V1038.14H260.554C260.464 1038.14 260.386 1038.11 260.322 1038.06C260.264 1038 260.234 1037.91 260.234 1037.8V1037.17L261.554 1036.98L261.906 1034.56C261.928 1034.47 261.968 1034.4 262.026 1034.35C262.09 1034.3 262.17 1034.27 262.266 1034.27H263.058V1037H265.362V1038.14H263.058V1042.9C263.058 1043.22 263.136 1043.46 263.29 1043.62C263.45 1043.77 263.653 1043.85 263.898 1043.85C264.042 1043.85 264.165 1043.83 264.266 1043.79C264.373 1043.75 264.464 1043.71 264.538 1043.67C264.613 1043.62 264.677 1043.58 264.73 1043.54C264.784 1043.51 264.832 1043.49 264.874 1043.49C264.928 1043.49 264.968 1043.5 264.994 1043.53C265.026 1043.55 265.058 1043.59 265.09 1043.64L265.554 1044.39C265.298 1044.63 264.994 1044.81 264.642 1044.94C264.29 1045.06 263.925 1045.13 263.546 1045.13Z" fill="black" fill-opacity="0.6"/>
</g>
<defs>
<filter id="filter0_d" x="546" y="101" width="464" height="946" filterUnits="userSpaceOnUse" color-interpolation-filters="sRGB">
<feFlood flood-opacity="0" result="BackgroundImageFix"/>
<feColorMatrix in="SourceAlpha" type="matrix" values="0 0 0 0 0 0 0 0 0 0 0 0 0 0 0 0 0 0 127 0"/>
<feMorphology radius="5" operator="dilate" in="SourceAlpha" result="effect1_dropShadow"/>
<feOffset/>
<feGaussianBlur stdDeviation="10"/>
<feColorMatrix type="matrix" values="0 0 0 0 0 0 0 0 0 0 0 0 0 0 0 0 0 0 0.1 0"/>
<feBlend mode="normal" in2="BackgroundImageFix" result="effect1_dropShadow"/>
<feBlend mode="normal" in="SourceGraphic" in2="effect1_dropShadow" result="shape"/>
</filter>
<filter id="filter2_d" x="546" y="178" width="464" height="101" filterUnits="userSpaceOnUse" color-interpolation-filters="sRGB">
<feFlood flood-opacity="0" result="BackgroundImageFix"/>
<feColorMatrix in="SourceAlpha" type="matrix" values="0 0 0 0 0 0 0 0 0 0 0 0 0 0 0 0 0 0 127 0"/>
<feMorphology radius="5" operator="dilate" in="SourceAlpha" result="effect1_dropShadow"/>
<feOffset dy="1"/>
<feGaussianBlur stdDeviation="10"/>
<feColorMatrix type="matrix" values="0 0 0 0 0 0 0 0 0 0 0 0 0 0 0 0 0 0 0.1 0"/>
<feBlend mode="normal" in2="BackgroundImageFix" result="effect1_dropShadow"/>
<feBlend mode="normal" in="SourceGraphic" in2="effect1_dropShadow" result="shape"/>
</filter>
<filter id="filter3_d" x="546" y="102" width="464" height="126" filterUnits="userSpaceOnUse" color-interpolation-filters="sRGB">
<feFlood flood-opacity="0" result="BackgroundImageFix"/>
<feColorMatrix in="SourceAlpha" type="matrix" values="0 0 0 0 0 0 0 0 0 0 0 0 0 0 0 0 0 0 127 0"/>
<feMorphology radius="5" operator="dilate" in="SourceAlpha" result="effect1_dropShadow"/>
<feOffset dy="1"/>
<feGaussianBlur stdDeviation="10"/>
<feColorMatrix type="matrix" values="0 0 0 0 0 0 0 0 0 0 0 0 0 0 0 0 0 0 0.1 0"/>
<feBlend mode="normal" in2="BackgroundImageFix" result="effect1_dropShadow"/>
<feBlend mode="normal" in="SourceGraphic" in2="effect1_dropShadow" result="shape"/>
</filter>
<filter id="filter1_f" x="870" y="907" width="110" height="110" filterUnits="userSpaceOnUse" color-interpolation-filters="sRGB">
<feFlood flood-opacity="0" result="BackgroundImageFix"/>
<feBlend mode="normal" in="SourceGraphic" in2="BackgroundImageFix" result="shape"/>
<feGaussianBlur stdDeviation="12.5" result="effect1_foregroundBlur"/>
</filter>
<filter id="filter4_f" x="-107" y="-90" width="830" height="1240" filterUnits="userSpaceOnUse" color-interpolation-filters="sRGB">
<feFlood flood-opacity="0" result="BackgroundImageFix"/>
<feBlend mode="normal" in="SourceGraphic" in2="BackgroundImageFix" result="shape"/>
<feGaussianBlur stdDeviation="70" result="effect1_foregroundBlur"/>
</filter>
<filter id="filter6_f" x="106" y="223" width="261" height="524" filterUnits="userSpaceOnUse" color-interpolation-filters="sRGB">
<feFlood flood-opacity="0" result="BackgroundImageFix"/>
<feBlend mode="normal" in="SourceGraphic" in2="BackgroundImageFix" result="shape"/>
<feGaussianBlur stdDeviation="3" result="effect1_foregroundBlur"/>
</filter>
<filter id="filter7_f" x="242" y="166" width="267" height="732" filterUnits="userSpaceOnUse" color-interpolation-filters="sRGB">
<feFlood flood-opacity="0" result="BackgroundImageFix"/>
<feBlend mode="normal" in="SourceGraphic" in2="BackgroundImageFix" result="shape"/>
<feGaussianBlur stdDeviation="3" result="effect1_foregroundBlur"/>
</filter>
<pattern id="pattern0" patternContentUnits="objectBoundingBox" width="1" height="1">
<use xlink:href="#image0" transform="translate(-0.108696) scale(0.00112721 0.000520833)"/>
</pattern>
<filter id="filter5_d" x="76" y="875" width="464" height="127" filterUnits="userSpaceOnUse" color-interpolation-filters="sRGB">
<feFlood flood-opacity="0" result="BackgroundImageFix"/>
<feColorMatrix in="SourceAlpha" type="matrix" values="0 0 0 0 0 0 0 0 0 0 0 0 0 0 0 0 0 0 127 0"/>
<feMorphology radius="5" operator="dilate" in="SourceAlpha" result="effect1_dropShadow"/>
<feOffset dy="-1"/>
<feGaussianBlur stdDeviation="10"/>
<feColorMatrix type="matrix" values="0 0 0 0 0 0 0 0 0 0 0 0 0 0 0 0 0 0 0.1 0"/>
<feBlend mode="normal" in2="BackgroundImageFix" result="effect1_dropShadow"/>
<feBlend mode="normal" in="SourceGraphic" in2="effect1_dropShadow" result="shape"/>
</filter>
<filter id="filter6_d" x="106" y="223" width="261" height="524" filterUnits="userSpaceOnUse" color-interpolation-filters="sRGB">
<feFlood flood-opacity="0" result="BackgroundImageFix"/>
<feColorMatrix in="SourceAlpha" type="matrix" values="0 0 0 0 0 0 0 0 0 0 0 0 0 0 0 0 0 0 127 0"/>
<feOffset dy="3"/>
<feGaussianBlur stdDeviation="3"/>
<feColorMatrix type="matrix" values="0 0 0 0 0 0 0 0 0 0.224806 0 0 0 0 1 0 0 0 0.15 0"/>
<feBlend mode="normal" in2="BackgroundImageFix" result="effect1_dropShadow"/>
<feBlend mode="normal" in="SourceGraphic" in2="effect1_dropShadow" result="shape"/>
</filter>
<filter id="filter7_d" x="243" y="166" width="267" height="732" filterUnits="userSpaceOnUse" color-interpolation-filters="sRGB">
<feFlood flood-opacity="0" result="BackgroundImageFix"/>
<feColorMatrix in="SourceAlpha" type="matrix" values="0 0 0 0 0 0 0 0 0 0 0 0 0 0 0 0 0 0 127 0"/>
<feOffset dy="3"/>
<feGaussianBlur stdDeviation="3"/>
<feColorMatrix type="matrix" values="0 0 0 0 0.0799999 0 0 0 0 0 0 0 0 0 1 0 0 0 0.15 0"/>
<feBlend mode="normal" in2="BackgroundImageFix" result="effect1_dropShadow"/>
<feBlend mode="normal" in="SourceGraphic" in2="effect1_dropShadow" result="shape"/>
</filter>
<filter id="filter8_d" x="76" y="58" width="464" height="126" filterUnits="userSpaceOnUse" color-interpolation-filters="sRGB">
<feFlood flood-opacity="0" result="BackgroundImageFix"/>
<feColorMatrix in="SourceAlpha" type="matrix" values="0 0 0 0 0 0 0 0 0 0 0 0 0 0 0 0 0 0 127 0"/>
<feMorphology radius="5" operator="dilate" in="SourceAlpha" result="effect1_dropShadow"/>
<feOffset dy="1"/>
<feGaussianBlur stdDeviation="10"/>
<feColorMatrix type="matrix" values="0 0 0 0 0 0 0 0 0 0 0 0 0 0 0 0 0 0 0.1 0"/>
<feBlend mode="normal" in2="BackgroundImageFix" result="effect1_dropShadow"/>
<feBlend mode="normal" in="SourceGraphic" in2="effect1_dropShadow" result="shape"/>
</filter>
<linearGradient id="preview_linear" x1="751" y1="8.8434e-06" x2="302" y2="1088" gradientUnits="userSpaceOnUse">
<stop class="PreviewBackLinear" stop-color="#ffd200"/>
<stop class="PreviewBackLinearShadow" offset="1" stop-color="#ffd200"/>
</linearGradient>
<linearGradient id="paint0_linear" x1="778" y1="929" x2="778" y2="1022" gradientUnits="userSpaceOnUse">
<stop class="windowBackgroundWhite" stop-color="#ffd200" stop-opacity="0"/>
<stop class="windowBackgroundWhite" offset="0.708333" stop-color="#ffd200"/>
</linearGradient>
<linearGradient id="paint1_linear" x1="409" y1="163.5" x2="409" y2="889" gradientUnits="userSpaceOnUse">
<stop class="chat_outBubbleGradient" stop-color="#ffd200"/>
<stop class="chat_outBubble" offset="1" stop-color="#ffd200"/>
</linearGradient>
<linearGradient id="paint2_linear" x1="391" y1="174.5" x2="391" y2="901" gradientUnits="userSpaceOnUse">
<stop class="chat_outBubbleGradient" stop-color="#ffd200"/>
<stop class="chat_outBubble" offset="1" stop-color="#ffd200"/>
</linearGradient>
<linearGradient id="paint3_linear" x1="410" y1="155" x2="410" y2="900.5" gradientUnits="userSpaceOnUse">
<stop class="chat_outBubbleGradient" stop-color="#ffd200"/>
<stop class="chat_outBubble" offset="1" stop-color="#ffd200"/>
</linearGradient>
<linearGradient id="paint4_linear" x1="409" y1="158.5" x2="409" y2="911" gradientUnits="userSpaceOnUse">
<stop class="chat_outBubbleGradient" stop-color="#ffd200"/>
<stop class="chat_outBubble" offset="1" stop-color="#ffd200"/>
</linearGradient>
<linearGradient id="paint5_linear" x1="384.5" y1="162.5" x2="373" y2="903" gradientUnits="userSpaceOnUse">
<stop class="chat_outBubbleGradient" stop-color="#ffd200"/>
<stop class="chat_outBubble" offset="1" stop-color="#ffd200"/>
</linearGradient>
<linearGradient id="paint6_linear" x1="372" y1="155.5" x2="372" y2="902.5" gradientUnits="userSpaceOnUse">
<stop class="chat_outBubbleGradient" stop-color="#ffd200"/>
<stop class="chat_outBubble" offset="1" stop-color="#ffd200"/>
</linearGradient>
<linearGradient id="paint7_linear" x1="409" y1="169" x2="409" y2="897.5" gradientUnits="userSpaceOnUse">
<stop class="chat_outBubbleGradient" stop-color="#ffd200"/>
<stop class="chat_outBubble" offset="1" stop-color="#ffd200"/>
</linearGradient>
<linearGradient id="paint0_linears" x1="636" y1="365" x2="636" y2="435" gradientUnits="userSpaceOnUse">
<stop class="avatar_backgroundRed" stop-color="#ffd200"/>
<stop class="avatar_backgroundRedShadow" offset="1" stop-color="#ffd200"/>
</linearGradient>
<linearGradient id="paint1_linears" x1="636" y1="271" x2="636" y2="341" gradientUnits="userSpaceOnUse">
<stop class="avatar_backgroundOrange" stop-color="#ffd200"/>
<stop class="avatar_backgroundOrangeShadow" offset="1" stop-color="#ffd200"/>
</linearGradient>
<linearGradient id="paint2_linears" x1="636" y1="647" x2="636" y2="717" gradientUnits="userSpaceOnUse">
<stop class="avatar_backgroundViolet" stop-color="#ffd200"/>
<stop class="avatar_backgroundVioletShadow" offset="1" stop-color="#ffd200"/>
</linearGradient>
<linearGradient id="paint3_linears" x1="636" y1="553" x2="636" y2="623" gradientUnits="userSpaceOnUse">
<stop class="avatar_backgroundGreen" stop-color="#ffd200"/>
<stop class="avatar_backgroundGreenShadow" offset="1" stop-color="#ffd200"/>
</linearGradient>
<linearGradient id="paint4_linears" x1="636" y1="459" x2="636" y2="529" gradientUnits="userSpaceOnUse">
<stop class="avatar_backgroundCyan" stop-color="#ffd200"/>
<stop class="avatar_backgroundCyanShadow" offset="1" stop-color="#ffd200"/>
</linearGradient>
<linearGradient id="paint5_linears" x1="636" y1="835" x2="636" y2="905" gradientUnits="userSpaceOnUse">
<stop class="avatar_backgroundBlue" stop-color="#ffd200"/>
<stop class="avatar_backgroundBlueShadow" offset="1" stop-color="#ffd200"/>
</linearGradient>
<linearGradient id="paint6_linears" x1="636" y1="741" x2="636" y2="811" gradientUnits="userSpaceOnUse">
<stop class="avatar_backgroundRed" stop-color="#ffd200"/>
<stop class="avatar_backgroundRedShadow" offset="1" stop-color="#ffd200"/>
</linearGradient>
<linearGradient id="paint7_linears" x1="636" y1="929" x2="636" y2="999" gradientUnits="userSpaceOnUse">
<stop class="avatar_backgroundOrange" stop-color="#ffd200"/>
<stop class="avatar_backgroundOrangeShadow" offset="1" stop-color="#ffd200"/>
</linearGradient>
<clipPath id="clip0">
<rect width="1088" height="1088" fill="ffd200"/>
</clipPath>
<clipPath id="clip1">
<rect x="571" y="126" width="414" height="896" rx="50" fill="ffd200"/>
</clipPath>
<clipPath id="clip2">
<rect x="101" y="82" width="414" height="896" rx="50" fill="ffd200"/>
</clipPath>
<clipPath id="clip3">
<rect width="13" height="13" fill="ffd200" transform="translate(121 1033)"/>
</clipPath>
<image class="IMG" id="image0" width="1080" height="1920"/>
</defs>
</svg>
